<?xml version="1.0" encoding="UTF-8"?>
<svg version="1.1" xmlns="http://www.w3.org/2000/svg" width="48" height="48">
<path d="M0 0 C1.1653125 0.00515625 2.330625 0.0103125 3.53125 0.015625 C4.6965625 0.01046875 5.861875 0.0053125 7.0625 0 C10.03125 0.265625 10.03125 0.265625 12.03125 2.265625 C12.296875 5.453125 12.296875 5.453125 12.28125 9.265625 C12.28640625 10.52375 12.2915625 11.781875 12.296875 13.078125 C12.03125 16.265625 12.03125 16.265625 10.03125 18.265625 C6.6996737 18.89687104 3.36462042 19.28626937 0 19.703125 C-3.07581858 19.99728699 -3.07581858 19.99728699 -4.96875 22.265625 C-5.36922444 24.58837677 -5.7084604 26.92301857 -5.96875 29.265625 C-9.28125 29.578125 -9.28125 29.578125 -12.96875 29.265625 C-16.14153591 25.99049116 -16.31460974 22.67455278 -16.3671875 18.328125 C-15.77242422 15.24935038 -15.075744 13.63344611 -12.96875 11.265625 C-10.05612576 10.63718458 -7.24342317 10.79517483 -4.28125 10.953125 C-3.08532227 10.98696289 -3.08532227 10.98696289 -1.86523438 11.02148438 C0.10106334 11.08035556 2.06639491 11.17003745 4.03125 11.265625 C4.03125 10.605625 4.03125 9.945625 4.03125 9.265625 C1.06125 9.265625 -1.90875 9.265625 -4.96875 9.265625 C-5.09375 5.890625 -5.09375 5.890625 -4.96875 2.265625 C-2.96875 0.265625 -2.96875 0.265625 0 0 Z " fill="#0176BC" transform="translate(19.96875,4.734375)"/>
<path d="M0 0 C3.3125 -0.3125 3.3125 -0.3125 7 0 C10.4282809 3.4282809 10.35064042 7.21992045 10.3984375 11.81640625 C9.85405776 14.79982069 9.32528491 15.99854587 7 18 C4.09082612 18.49451323 1.25240264 18.37541012 -1.6875 18.25 C-2.48478516 18.23195313 -3.28207031 18.21390625 -4.10351562 18.1953125 C-6.06952449 18.14822247 -8.03491494 18.07647899 -10 18 C-10 18.66 -10 19.32 -10 20 C-7.03 20 -4.06 20 -1 20 C-0.875 23.375 -0.875 23.375 -1 27 C-3.69101234 29.69101234 -5.19075946 29.29887549 -8.9375 29.3125 C-9.99839844 29.32925781 -11.05929688 29.34601562 -12.15234375 29.36328125 C-15 29 -15 29 -16.859375 27.890625 C-18.56281693 25.06711167 -18.35993318 22.70309185 -18.3125 19.4375 C-18.30863281 18.28121094 -18.30476563 17.12492187 -18.30078125 15.93359375 C-18 13 -18 13 -16 11 C-13.5390625 10.62109375 -13.5390625 10.62109375 -10.625 10.4375 C-7.2015107 10.21142052 -4.35839775 9.83959944 -1 9 C-0.67 6.03 -0.34 3.06 0 0 Z " fill="#FFC106" transform="translate(33,14)"/>
</svg>
