<?xml version="1.0" encoding="UTF-8"?>
<svg version="1.1" xmlns="http://www.w3.org/2000/svg" width="64" height="64">
<path d="M0 0 C1.1758667 -0.00574036 1.1758667 -0.00574036 2.37548828 -0.01159668 C4.02963549 -0.01431353 5.68382583 -0.0069681 7.33789062 0.00976562 C9.86686162 0.03118108 12.39299214 0.00995903 14.921875 -0.015625 C16.53125626 -0.01298168 18.14063575 -0.00785661 19.75 0 C20.5042627 -0.00809692 21.25852539 -0.01619385 22.03564453 -0.02453613 C25.23542329 0.03248566 27.54293011 0.34490297 30.34960938 1.91992188 C32.7720033 6.06683696 32.44551327 10.1255157 32.40625 14.84375 C32.4100769 15.84962158 32.41390381 16.85549316 32.41784668 17.8918457 C32.42056651 20.01677451 32.41320041 22.14173676 32.39648438 24.26660156 C32.37507641 27.51963932 32.39628432 30.77046845 32.421875 34.0234375 C32.41923174 36.08854654 32.41410679 38.15365421 32.40625 40.21875 C32.41434692 41.19175049 32.42244385 42.16475098 32.43078613 43.16723633 C32.33954533 49.73599122 32.33954533 49.73599122 30.34960938 53.14257812 C26.86465115 55.09822556 23.64331965 55.10429434 19.75 55.0625 C18.96608887 55.0663269 18.18217773 55.07015381 17.37451172 55.07409668 C15.72036451 55.07681353 14.06617417 55.0694681 12.41210938 55.05273438 C9.88313838 55.03131892 7.35700786 55.05254097 4.828125 55.078125 C3.21874374 55.07548168 1.60936425 55.07035661 0 55.0625 C-0.7542627 55.07059692 -1.50852539 55.07869385 -2.28564453 55.08703613 C-5.48542329 55.03001434 -7.79293011 54.71759703 -10.59960938 53.14257812 C-13.0220033 48.99566304 -12.69551327 44.9369843 -12.65625 40.21875 C-12.6600769 39.21287842 -12.66390381 38.20700684 -12.66784668 37.1706543 C-12.67056651 35.04572549 -12.66320041 32.92076324 -12.64648438 30.79589844 C-12.62507641 27.54286068 -12.64628432 24.29203155 -12.671875 21.0390625 C-12.66923174 18.97395346 -12.66410679 16.90884579 -12.65625 14.84375 C-12.66434692 13.87074951 -12.67244385 12.89774902 -12.68078613 11.89526367 C-12.58954533 5.32650878 -12.58954533 5.32650878 -10.59960938 1.91992188 C-7.11465115 -0.03572556 -3.89331965 -0.04179434 0 0 Z " fill="#F8F8F9" transform="translate(22.125,3.46875)"/>
<path d="M0 0 C1.1758667 -0.00574036 1.1758667 -0.00574036 2.37548828 -0.01159668 C4.02963549 -0.01431353 5.68382583 -0.0069681 7.33789062 0.00976562 C9.86686162 0.03118108 12.39299214 0.00995903 14.921875 -0.015625 C16.53125626 -0.01298168 18.14063575 -0.00785661 19.75 0 C20.5042627 -0.00809692 21.25852539 -0.01619385 22.03564453 -0.02453613 C25.23542329 0.03248566 27.54293011 0.34490297 30.34960938 1.91992188 C32.7720033 6.06683696 32.44551327 10.1255157 32.40625 14.84375 C32.4100769 15.84962158 32.41390381 16.85549316 32.41784668 17.8918457 C32.42056651 20.01677451 32.41320041 22.14173676 32.39648438 24.26660156 C32.37507641 27.51963932 32.39628432 30.77046845 32.421875 34.0234375 C32.41923174 36.08854654 32.41410679 38.15365421 32.40625 40.21875 C32.41434692 41.19175049 32.42244385 42.16475098 32.43078613 43.16723633 C32.33954533 49.73599122 32.33954533 49.73599122 30.34960938 53.14257812 C26.86465115 55.09822556 23.64331965 55.10429434 19.75 55.0625 C18.96608887 55.0663269 18.18217773 55.07015381 17.37451172 55.07409668 C15.72036451 55.07681353 14.06617417 55.0694681 12.41210938 55.05273438 C9.88313838 55.03131892 7.35700786 55.05254097 4.828125 55.078125 C3.21874374 55.07548168 1.60936425 55.07035661 0 55.0625 C-0.7542627 55.07059692 -1.50852539 55.07869385 -2.28564453 55.08703613 C-5.48542329 55.03001434 -7.79293011 54.71759703 -10.59960938 53.14257812 C-13.0220033 48.99566304 -12.69551327 44.9369843 -12.65625 40.21875 C-12.6600769 39.21287842 -12.66390381 38.20700684 -12.66784668 37.1706543 C-12.67056651 35.04572549 -12.66320041 32.92076324 -12.64648438 30.79589844 C-12.62507641 27.54286068 -12.64628432 24.29203155 -12.671875 21.0390625 C-12.66923174 18.97395346 -12.66410679 16.90884579 -12.65625 14.84375 C-12.66434692 13.87074951 -12.67244385 12.89774902 -12.68078613 11.89526367 C-12.58954533 5.32650878 -12.58954533 5.32650878 -10.59960938 1.91992188 C-7.11465115 -0.03572556 -3.89331965 -0.04179434 0 0 Z M-9.125 5.53125 C-9.23317213 6.86567853 -9.27398727 8.20568299 -9.28613281 9.54443359 C-9.29574036 10.39556732 -9.3053479 11.24670105 -9.31524658 12.12362671 C-9.31949646 13.04962677 -9.32374634 13.97562683 -9.328125 14.9296875 C-9.33382507 15.87558746 -9.33952515 16.82148743 -9.34539795 17.79605103 C-9.35486364 19.8018481 -9.36138813 21.80766084 -9.36523438 23.81347656 C-9.37493714 26.88634326 -9.40594458 29.95854056 -9.4375 33.03125 C-9.44402996 34.97655851 -9.44928046 36.92187183 -9.453125 38.8671875 C-9.4654718 39.7891391 -9.4778186 40.7110907 -9.49053955 41.66098022 C-9.48753845 42.51841827 -9.48453735 43.37585632 -9.48144531 44.25927734 C-9.48509094 45.01348969 -9.48873657 45.76770203 -9.49249268 46.54476929 C-9.01863291 49.10621702 -8.19255243 49.98360973 -6.125 51.53125 C-2.78201708 51.9967109 -2.78201708 51.9967109 1.0625 51.9296875 C2.11087036 51.93399277 2.11087036 51.93399277 3.18041992 51.93838501 C4.65642101 51.94042425 6.13244921 51.93490403 7.60839844 51.92236328 C9.86715138 51.9063058 12.12411518 51.9222147 14.3828125 51.94140625 C15.81771228 51.93942379 17.25261095 51.93558006 18.6875 51.9296875 C20.64623047 51.92461182 20.64623047 51.92461182 22.64453125 51.91943359 C25.78804684 51.81449609 25.78804684 51.81449609 27.55462646 50.27398682 C29.20069116 48.10137622 29.24452302 46.96481028 29.23144531 44.25927734 C29.23444641 43.40183929 29.23744751 42.54440125 29.24053955 41.66098022 C29.22819275 40.73902863 29.21584595 39.81707703 29.203125 38.8671875 C29.20125183 37.91937408 29.19937866 36.97156067 29.19744873 35.99502563 C29.19072751 33.99274169 29.17681164 31.9904709 29.15625 29.98828125 C29.12505156 26.91133529 29.11527546 23.83490104 29.109375 20.7578125 C29.100207 18.81509787 29.08983188 16.87238849 29.078125 14.9296875 C29.07387512 14.00368744 29.06962524 13.07768738 29.06524658 12.12362671 C29.05563904 11.27249298 29.04603149 10.42135925 29.03613281 9.54443359 C29.02589081 8.41550186 29.02589081 8.41550186 29.01544189 7.26376343 C29.06080426 5.50116677 29.06080426 5.50116677 27.875 4.53125 C25.22043807 4.43029436 22.59244824 4.39154002 19.9375 4.3984375 C19.142229 4.39748077 18.34695801 4.39652405 17.52758789 4.39553833 C15.8429354 4.39485657 14.15828029 4.39671057 12.47363281 4.40087891 C9.88600803 4.40622725 7.29855684 4.40093381 4.7109375 4.39453125 C3.07812461 4.39519203 1.44531184 4.3964732 -0.1875 4.3984375 C-0.96665771 4.39641327 -1.74581543 4.39438904 -2.54858398 4.39230347 C-6.132942 4.0728542 -6.132942 4.0728542 -9.125 5.53125 Z " fill="#4A4F58" transform="translate(22.125,3.46875)"/>
<path d="M0 0 C9.9 0 19.8 0 30 0 C30 2.64 30 5.28 30 8 C20.1 8 10.2 8 0 8 C0 5.36 0 2.72 0 0 Z " fill="#CAD9E3" transform="translate(17,11)"/>
<path d="M0 0 C9.57 0 19.14 0 29 0 C28.67 0.99 28.34 1.98 28 3 C19.09 3 10.18 3 1 3 C0.67 2.01 0.34 1.02 0 0 Z " fill="#D0DDE7" transform="translate(17,26)"/>
<path d="M0 0 C8.91 0 17.82 0 27 0 C27 0.99 27 1.98 27 3 C18.09 3 9.18 3 0 3 C0 2.01 0 1.02 0 0 Z " fill="#C7D7E2" transform="translate(18,33)"/>
<path d="M0 0 C5.28 0 10.56 0 16 0 C16 0.99 16 1.98 16 3 C11.05 3 6.1 3 1 3 C0.67 2.01 0.34 1.02 0 0 Z " fill="#D0DDE7" transform="translate(17,41)"/>
</svg>
