<?xml version="1.0" encoding="UTF-8"?>
<svg version="1.1" xmlns="http://www.w3.org/2000/svg" width="48" height="48">
<path d="M0 0 C1.95766281 -0.08082094 3.91626728 -0.13910778 5.875 -0.1875 C7.51082031 -0.23970703 7.51082031 -0.23970703 9.1796875 -0.29296875 C10.11039063 -0.19628906 11.04109375 -0.09960938 12 0 C12.66 0.99 13.32 1.98 14 3 C16.77262255 3.38394667 19.34323528 3.60342248 22.125 3.6875 C22.87910156 3.72166016 23.63320313 3.75582031 24.41015625 3.79101562 C26.27291201 3.87354278 28.13643326 3.93844711 30 4 C31.18637743 7.55913229 31.14615346 10.798145 31.125 14.5 C31.13080078 15.51513672 31.13080078 15.51513672 31.13671875 16.55078125 C31.13062416 19.64073767 30.9844023 22.04679311 30 25 C28.35 25 26.7 25 25 25 C25.020625 26.258125 25.04125 27.51625 25.0625 28.8125 C25.10886083 31.64051087 24.91692961 33.24921116 24 36 C14.1 36 4.2 36 -6 36 C-6 27.75 -6 19.5 -6 11 C-4.02 11 -2.04 11 0 11 C0 7.37 0 3.74 0 0 Z " fill="#FECE18" transform="translate(12,6)"/>
<path d="M0 0 C1.95766281 -0.08082094 3.91626728 -0.13910778 5.875 -0.1875 C7.51082031 -0.23970703 7.51082031 -0.23970703 9.1796875 -0.29296875 C10.11039063 -0.19628906 11.04109375 -0.09960938 12 0 C12.66 0.99 13.32 1.98 14 3 C16.77262255 3.38394667 19.34323528 3.60342248 22.125 3.6875 C22.87910156 3.72166016 23.63320313 3.75582031 24.41015625 3.79101562 C26.27291201 3.87354278 28.13643326 3.93844711 30 4 C31.18637743 7.55913229 31.14615346 10.798145 31.125 14.5 C31.13080078 15.51513672 31.13080078 15.51513672 31.13671875 16.55078125 C31.13062416 19.64073767 30.9844023 22.04679311 30 25 C28.35 25 26.7 25 25 25 C25 27.64 25 30.28 25 33 C24.67 33 24.34 33 24 33 C23.67 27.39 23.34 21.78 23 16 C13.43 16 3.86 16 -6 16 C-6 14.35 -6 12.7 -6 11 C-4.02 11 -2.04 11 0 11 C0 7.37 0 3.74 0 0 Z " fill="#F4B704" transform="translate(12,6)"/>
<path d="M0 0 C3.96 0 7.92 0 12 0 C12.66 1.32 13.32 2.64 14 4 C9.38 4.33 4.76 4.66 0 5 C0 3.35 0 1.7 0 0 Z " fill="#FFA000" transform="translate(12,6)"/>
<path d="M0 0 C3.63 0 7.26 0 11 0 C11.66 1.32 12.32 2.64 13 4 C6.565 4.495 6.565 4.495 0 5 C0 3.35 0 1.7 0 0 Z " fill="#FEA000" transform="translate(6,17)"/>
</svg>
